<?xml version="1.0" encoding="UTF-8"?>
<!DOCTYPE svg PUBLIC "-//W3C//DTD SVG 1.1//EN" "http://www.w3.org/Graphics/SVG/1.1/DTD/svg11.dtd">
<!-- Creator: CorelDRAW -->
<svg xmlns="http://www.w3.org/2000/svg" xml:space="preserve" width="500.2mm" height="669.541mm" version="1.1" style="shape-rendering:geometricPrecision; text-rendering:geometricPrecision; image-rendering:optimizeQuality; fill-rule:evenodd; clip-rule:evenodd"
viewBox="0 0 393869.11 527212.6"
 xmlns:xlink="http://www.w3.org/1999/xlink"
 xmlns:xodm="http://www.corel.com/coreldraw/odm/2003">
 <defs>
  <style type="text/css">
   <![CDATA[
    .str0 {stroke:#373435;stroke-width:157.48;stroke-miterlimit:22.9256}
    .fil0 {fill:#A8518A}
   ]]>
  </style>
 </defs>
 <g id="Camada_x0020_1">
  <metadata id="CorelCorpID_0Corel-Layer"/>
  <path class="fil0 str0" d="M196897.55 526907.87c0,0 -6777.43,-37542.39 -147909.49,-61820.55 0,0 -49017.2,-3613.25 -48909.32,-48909.32l107.88 -324907.11c0,0 46589.1,-3912.79 45323.94,-55036.97 0,0 49715.64,-24062.64 109692.12,-36144.87 0,0 12477.99,24775.42 41731.87,24888.57 15454.6,107.8 32195.15,-8069.52 41731.87,-24888.57 39071.64,8172.91 74495.94,19917.25 109692.12,36144.87 -786.95,20790.97 7290.44,48765.38 45323.94,55036.97l107.88 324907.11c-107.96,28215.12 -19360.62,45229.45 -48909.32,48909.32 -54361.99,8183.93 -137737.94,33074.86 -147983.5,61820.55z"/>
 </g>
</svg>